<?xml version="1.0" encoding="UTF-8" standalone="no"?>
<!DOCTYPE svg PUBLIC "-//W3C//DTD SVG 20010904//EN"
              "http://www.w3.org/TR/2001/REC-SVG-20010904/DTD/svg10.dtd">

<svg xmlns="http://www.w3.org/2000/svg"
     width="0.333333in" height="0.223333in"
     viewBox="0 0 166 111">
  <path id="eons"
        fill="#f40" stroke="#f40" stroke-width="1"
        d="M 22.13,58.83
           C 22.13,58.83 47.59,47.45 47.59,47.45
             47.59,47.45 60.04,22.20 60.04,22.20
             47.31,24.42 29.88,31.64 9.13,39.68
             9.13,39.68 14.66,70.76 14.66,70.76
             14.66,70.76 62.53,77.98 62.53,77.98
             62.53,77.98 41.22,62.44 41.22,62.44
             41.22,62.44 32.92,65.77 32.92,65.77
             32.92,65.77 22.13,58.83 22.13,58.83 Z
           M 51.46,33.02
           C 50.91,33.30 19.92,42.18 19.92,42.18
             19.92,42.18 23.79,50.51 24.07,50.78
             24.35,51.06 38.73,44.40 39.01,44.40
             39.29,44.40 52.01,32.74 51.46,33.02 Z
           M 78.02,41.35
           C 78.02,41.35 67.23,28.86 67.23,28.86
             67.23,28.86 53.95,44.40 53.95,44.40
             53.95,44.40 54.78,66.32 55.06,66.88
             55.33,67.43 71.10,79.64 72.21,78.81
             73.32,77.98 90.75,61.05 90.75,61.05
             90.75,61.05 78.02,41.35 78.02,41.35 Z
           M 65.85,46.62
           C 65.85,46.62 61.97,55.50 61.97,55.50
             61.97,55.50 72.21,64.66 72.21,64.66
             72.21,64.66 79.96,59.11 79.96,59.11
             79.96,59.11 65.85,46.62 65.85,46.62 Z
           M 94.90,48.56
           C 94.90,48.56 69.44,23.03 70.27,22.48
             71.10,21.92 94.62,23.03 94.62,23.03
             94.62,23.03 129.48,60.77 129.48,60.77
             129.48,60.77 118.14,77.98 117.86,77.98
             117.58,77.98 104.03,81.03 104.86,78.53
             105.69,76.03 116.75,63.27 116.75,63.27
             116.75,63.27 92.96,36.63 92.96,36.63
             92.96,36.63 110.67,62.72 110.67,62.72
             110.67,62.72 95.73,79.09 95.73,79.09
             95.73,79.09 81.62,79.36 81.62,79.09
             81.62,78.81 99.60,57.44 99.60,57.16
             99.60,56.89 94.90,48.56 94.90,48.56 Z
           M 104.58,23.31
           C 104.58,23.31 124.50,41.90 124.50,41.90
             124.50,41.90 141.65,60.77 141.65,60.77
             141.65,60.77 126.44,75.76 126.44,75.76
             126.44,75.76 149.40,68.82 149.40,68.82
             149.40,68.82 154.10,60.22 154.10,59.11
             154.10,58.00 141.93,47.45 141.93,47.45
             141.93,47.45 125.88,35.52 125.88,35.52
             125.88,35.52 148.57,35.80 148.57,35.80
             149.43,34.76 110.67,23.31 104.58,23.31 Z" />
</svg>
