<?xml version="1.0" encoding="UTF-8" standalone="no"?>
<!DOCTYPE svg PUBLIC "-//W3C//DTD SVG 20010904//EN"
              "http://www.w3.org/TR/2001/REC-SVG-20010904/DTD/svg10.dtd">

<svg xmlns="http://www.w3.org/2000/svg"
     width="2.77778in" height="3.45833in"
     viewBox="0 0 200 249">
  <path id="mbn"
        fill="none" stroke="black" stroke-width="1"
        d="M 110.55,107.45
           C 110.55,107.45 105.97,128.84 106.14,131.94
             106.38,136.29 114.35,150.83 116.69,155.94
             116.69,155.94 128.98,186.94 128.98,186.94
             132.18,193.16 140.23,202.60 144.18,208.30
             140.11,204.14 132.51,194.91 129.47,189.94
             129.47,189.94 109.74,143.94 109.74,143.94
             101.56,128.08 87.71,114.62 76.25,100.94
             69.98,93.46 58.22,81.43 50.00,76.40
             47.25,74.72 40.15,71.57 37.00,71.54
             27.86,71.44 28.70,86.65 27.54,92.94
             27.54,92.94 25.01,102.94 25.01,102.94
             23.81,108.52 22.14,121.34 22.17,126.94
             22.17,126.94 22.17,138.85 22.17,138.85
             22.17,138.85 14.14,149.94 14.14,149.94
             9.97,155.88 8.50,160.70 8.09,167.94
             7.62,176.26 10.53,184.81 14.58,191.94
             16.06,194.55 22.01,203.57 21.98,205.77
             21.93,209.86 14.92,213.49 12.09,215.72
             6.83,219.86 3.39,225.25 3.00,232.09
             3.00,232.09 12.00,232.09 12.00,232.09
             12.00,232.09 20.00,226.53 20.00,226.53
             20.00,226.53 35.00,215.94 35.00,215.94
             35.00,215.94 26.00,208.94 26.00,208.94
             26.00,208.94 45.00,218.71 45.00,218.71
             59.67,224.19 101.79,233.89 118.00,236.50
             118.00,236.50 153.00,238.94 153.00,238.94
             153.00,238.94 150.15,228.79 150.15,228.79
             150.15,228.79 140.00,225.56 140.00,225.56
             140.00,225.56 115.00,219.78 115.00,219.78
             115.00,219.78 102.00,214.11 102.00,214.11
             102.00,214.11 84.00,206.68 84.00,206.68
             84.00,206.68 49.00,179.39 49.00,179.39
             49.00,179.39 27.00,167.94 27.00,167.94
             21.80,162.67 20.32,149.69 23.00,142.94
             23.00,142.94 24.61,159.94 24.61,159.94
             24.61,159.94 27.42,166.16 27.42,166.16
             27.42,166.16 44.00,171.94 44.00,171.94
             44.00,171.94 45.17,156.94 45.17,156.94
             45.17,156.94 47.00,127.94 47.00,127.94
             49.89,136.36 47.04,151.76 47.00,160.94
             47.00,160.94 47.00,176.94 47.00,176.94
             47.00,176.94 62.00,173.94 62.00,173.94
             60.33,163.13 52.77,148.61 52.00,131.94
             56.69,144.69 56.26,153.68 64.11,169.94
             64.11,169.94 73.62,186.94 73.62,186.94
             80.81,197.21 96.67,210.57 108.00,215.96
             112.89,218.28 120.58,219.54 126.00,220.82
             126.00,220.82 150.00,225.94 150.00,225.94
             147.64,213.37 146.00,207.94 146.00,207.94
             140.27,192.77 137.97,180.05 138.00,163.94
             138.00,163.94 142.91,116.94 142.91,116.94
             143.13,113.08 142.50,111.47 141.94,107.94
             141.94,107.94 141.94,97.16 141.94,97.16
             140.62,93.53 135.15,93.48 132.00,92.49
             127.61,91.12 121.50,86.87 119.31,82.77
             115.44,75.49 123.47,69.47 128.00,64.94
             125.98,68.13 121.16,73.76 120.47,76.94
             119.95,79.34 120.60,81.86 121.85,83.93
             126.21,91.15 133.44,91.91 141.00,91.94
             141.00,91.94 136.00,75.94 136.00,75.94
             146.59,83.52 148.79,90.07 152.14,101.94
             153.34,106.20 154.60,110.50 154.91,114.94
             155.40,121.91 154.12,125.41 153.28,131.94
             153.28,131.94 151.74,143.94 151.74,143.94
             151.74,143.94 149.28,155.94 149.28,155.94
             149.28,155.94 147.71,170.94 147.71,170.94
             147.01,176.56 146.08,178.76 146.00,184.94
             145.80,202.55 147.79,209.12 152.58,225.94
             156.14,238.43 154.74,239.87 164.00,239.94
             164.00,239.94 171.00,239.94 171.00,239.94
             171.00,239.94 166.00,223.94 166.00,223.94
             166.00,223.94 175.00,241.94 175.00,241.94
             175.00,241.94 189.94,241.06 189.94,241.06
             189.94,241.06 198.00,240.94 198.00,240.94
             196.26,236.42 190.15,234.87 186.00,232.94
             186.00,232.94 183.98,230.94 183.98,230.94
             179.86,222.93 172.01,222.01 164.00,221.94
             162.11,211.87 154.38,206.15 154.73,199.94
             154.88,197.26 158.43,188.02 159.50,184.94
             163.57,173.20 170.94,153.95 171.00,141.94
             171.00,141.94 171.00,124.94 171.00,124.94
             171.00,124.94 172.00,108.94 172.00,108.94
             171.92,101.82 170.14,94.94 169.13,87.94
             169.13,87.94 167.48,75.94 167.48,75.94
             165.99,69.11 160.39,57.16 155.82,51.94
             141.58,35.68 132.70,39.50 116.00,30.94
             116.00,30.94 112.82,39.94 112.82,39.94
             112.51,33.99 115.22,29.93 112.82,23.94
             111.43,21.10 107.87,16.40 107.87,16.40
             107.87,16.40 106.47,14.93 106.22,14.67
             105.17,13.57 102.74,12.17 102.74,12.17
             102.74,12.17 107.56,14.98 107.56,14.98
             107.56,14.98 113.37,20.94 113.37,20.94
             116.68,25.46 117.51,29.54 123.01,32.50
             128.91,35.67 135.69,34.40 142.00,35.94
             131.99,21.96 119.35,14.20 102.81,10.88
             102.81,10.88 101.03,10.63 100.00,10.11
             94.35,7.29 81.28,8.42 75.00,8.85
             75.00,8.85 55.00,10.60 55.00,10.60
             55.00,10.60 44.00,13.58 44.00,13.58
             37.36,15.01 19.48,16.00 15.39,20.21
             10.69,25.06 11.55,33.44 14.56,38.94
             19.44,47.87 36.29,59.21 46.00,62.42
             54.11,65.10 66.45,66.92 75.00,66.94
             75.00,66.94 93.00,66.94 93.00,66.94
             93.00,66.94 100.00,49.94 100.00,49.94
             88.65,46.70 89.72,42.99 73.00,40.38
             62.54,38.74 53.10,41.97 43.00,37.94
             43.00,37.94 69.00,30.94 69.00,30.94
             66.54,22.41 67.24,15.46 76.00,10.94
             74.26,12.82 72.45,14.60 71.31,16.94
             64.97,29.98 80.03,39.63 90.00,44.31
             97.18,47.67 102.70,46.31 102.82,50.08
             102.89,52.54 99.61,55.39 98.09,58.94
             96.16,63.42 96.96,70.69 99.28,74.92
             101.32,78.66 104.03,80.28 108.00,81.45
             110.75,82.25 115.46,82.64 116.23,86.07
             116.67,88.05 113.19,96.28 112.43,98.94
             112.13,99.99 110.85,105.38 110.85,105.38
             110.85,105.38 89.00,112.00 89.00,112.00
             89.00,112.00 103.00,131.00 103.00,131.00
             103.00,131.00 110.55,107.45 110.55,107.45 Z" />
</svg>
